PathFileType	4	(X/Y/Z)	Walk5.trc
DataRate	CameraRate	NumFrames	NumMarkers	Units	OrigDataRate	OrigDataStartFrame	OrigNumFrames
200.000000	200.000000	4	61	mm	200.000000	734	775
Frame#	Times		RCAR		LTH3		RTH2		LBHD		LCAR		LUA1		LFA1		RTB3		LWRU		LElbow		RToe		RTB2		RMT5		C7		RMT1		RBHD		LWRR		RMMAL		RTB1		RWRU		RFA1		LTH2		RTB4		RLFC		LTH4		RPSI		RLMAL		T10		LASI		RBack		RTH1		STRN		LPSI		LElbowM		LLFC		RElbow		LTB4		RUA1		LTB3		LACR1		LCAL		RTH3		RCAL		RElbowM		LTB1		LToe		CLAV		LMFC		LTB2		RASI		LFHD		RACR1		RTH4		LMT5		RFHD		RWRR		LMMAL		RMFC		LLMAL		LMT1		LTH1
			X1	Y1	Z1	X2	Y2	Z2	X3	Y3	Z3	X4	Y4	Z4	X5	Y5	Z5	X6	Y6	Z6	X7	Y7	Z7	X8	Y8	Z8	X9	Y9	Z9	X10	Y10	Z10	X11	Y11	Z11	X12	Y12	Z12	X13	Y13	Z13	X14	Y14	Z14	X15	Y15	Z15	X16	Y16	Z16	X17	Y17	Z17	X18	Y18	Z18	X19	Y19	Z19	X20	Y20	Z20	X21	Y21	Z21	X22	Y22	Z22	X23	Y23	Z23	X24	Y24	Z24	X25	Y25	Z25	X26	Y26	Z26	X27	Y27	Z27	X28	Y28	Z28	X29	Y29	Z29	X30	Y30	Z30	X31	Y31	Z31	X32	Y32	Z32	X33	Y33	Z33	X34	Y34	Z34	X35	Y35	Z35	X36	Y36	Z36	X37	Y37	Z37	X38	Y38	Z38	X39	Y39	Z39	X40	Y40	Z40	X41	Y41	Z41	X42	Y42	Z42	X43	Y43	Z43	X44	Y44	Z44	X45	Y45	Z45	X46	Y46	Z46	X47	Y47	Z47	X48	Y48	Z48	X49	Y49	Z49	X50	Y50	Z50	X51	Y51	Z51	X52	Y52	Z52	X53	Y53	Z53	X54	Y54	Z54	X55	Y55	Z55	X56	Y56	Z56	X57	Y57	Z57	X58	Y58	Z58	X59	Y59	Z59	X60	Y60	Z60	X61	Y61	Z61

734	3.67	861.34	847.43	286.59	796.31	618.42	-179.86	930.6	742.11	154.63	746.22	1648.2	-128.66	957.82	851.17	-319.72	788.6	1304	-312.67	830.49	1003	-343.2	811.21	231.45	90.943	879.76	878.7	-325.32	785.32	1148	-339.86	873.67	47.17	127.89	824.01	317.4	161.49	777.45	56.338	162.9	728.11	1523.7	-50.706	833.74	52.393	97.768	759.69	1663.6	12.502	937	900.96	-268.55	765	145.89	50.4	905.14	390.9	112.74	799.03	873.85	276.94	759.34	1005.3	272.59	866.27	713.01	-172.29	860.37	310.34	100.2	891.96	521.98	175.07	798.38	709.27	-197.63	637.5	1029.6	11.136	711.17	137.29	120.73	627.55	1298.6	-48.079	844.92	1049.1	-172.65	649.55	1437.8	79.805	839.21	818.28	178.2	908	1264.8	-46.244	636.09	1027.1	-66.924	742.15	1133.1	-277.19	783.28	513.94	-165.41	730.58	1152.2	246.22	791.51	286.75	-80.212	765.94	1305.5	210.82	768.43	193.3	-77.872	802.64	1476.3	-214.77	643.42	29.515	-74.735	885.26	633.65	180.45	657.06	119.93	60.166	708.18	1134.7	170.17	812.37	374.11	-84.903	904.05	31.425	-78.488	861.36	1438	-48.674	791.63	522.45	-36.493	770.89	289.56	-153.3	847.25	1058.2	110.98	925.84	1696.7	-105.64	802.62	1476.7	112.19	868.21	726.99	188.26	803.34	21.519	-149.62	932.64	1703.8	-29.445	859.46	884.66	230.93	732.35	92.019	-35.075	925.8	530.95	47.373	704.41	70.535	-116.41	850.02	39.463	-64.36	805.87	799.72	-212.37
735	3.675	861.94	846.97	287.4	798.26	618.36	-179.89	936.3	742.86	153.82	751.08	1648.1	-128.61	967.86	853.26	-320.19	794.56	1304.3	-312.95	839.05	1003.7	-343.78	824.52	229.78	90.736	889.46	879.9	-325.73	792.46	1148.4	-340.49	891.37	47.294	128.47	835.21	316.18	161.24	794.82	54.357	163.22	733	1523.6	-50.761	851.37	51.6	98.188	764.52	1663.4	12.564	946.51	902.8	-269.01	780.45	143.09	50.237	914.72	391.37	112.32	799.77	873.58	277.14	760.77	1005.3	272.62	868.92	712.44	-172.31	871.76	309.74	99.925	899.14	522.39	174.55	800.99	709.19	-197.59	642.01	1029.7	11.197	726.59	133.36	120.61	632.27	1298.6	-48.146	849.24	1048.9	-172.85	654.21	1437.9	79.527	844.62	818.67	178.43	912.68	1264.6	-46.37	640.51	1027.2	-66.863	749.33	1133	-277.91	784.55	513.88	-165.44	732.93	1152.3	246.02	792.07	286.64	-80.202	769.24	1305.4	210.84	768.76	193.22	-77.879	807.64	1476.3	-214.74	643.48	29.606	-74.714	891.77	634.21	180.09	673.05	114.37	59.952	710.96	1134.8	169.93	813.18	373.94	-84.913	904.08	31.414	-78.477	866.16	1437.9	-48.672	793.04	522.31	-36.49	771.49	289.48	-153.32	851.94	1057.9	110.79	930.69	1696.7	-105.5	807.3	1476.5	112.26	874.56	727.41	188	803.36	21.521	-149.61	937.47	1703.7	-29.306	860.63	884.26	231.81	732.4	92.052	-35.071	932.06	531.57	46.621	704.44	70.599	-116.4	850.03	39.449	-64.354	809.15	799.57	-212.36
736	3.68	862.59	846.53	288.19	800.22	618.28	-179.92	941.92	743.52	153	755.94	1648	-128.55	977.84	855.34	-320.64	800.49	1304.6	-313.2	847.57	1004.4	-344.32	837.87	228.12	90.557	899.11	881.08	-326.1	799.56	1148.7	-341.09	909.11	47.533	129.06	846.38	314.97	160.99	812.29	52.465	163.58	737.91	1523.6	-50.802	869.07	50.908	98.624	769.37	1663.2	12.635	955.98	904.63	-269.46	796.01	140.35	50.105	924.22	391.81	111.9	800.55	873.3	277.29	762.23	1005.2	272.65	871.56	711.86	-172.34	883.12	309.15	99.671	906.17	522.75	174.02	803.59	709.09	-197.55	646.52	1029.8	11.269	742.14	129.46	120.53	636.99	1298.7	-48.184	853.56	1048.6	-173.03	658.89	1437.9	79.275	849.92	819.02	178.72	917.37	1264.4	-46.483	644.93	1027.2	-66.788	756.49	1132.8	-278.59	785.83	513.82	-165.46	735.3	1152.4	245.82	792.64	286.52	-80.198	772.57	1305.3	210.88	769.1	193.14	-77.882	812.63	1476.3	-214.69	643.54	29.702	-74.684	898.14	634.7	179.69	689.24	108.85	59.782	713.75	1135	169.69	814	373.77	-84.93	904.11	31.403	-78.466	870.97	1437.7	-48.662	794.47	522.18	-36.49	772.1	289.4	-153.34	856.58	1057.5	110.69	935.56	1696.6	-105.36	812	1476.3	112.35	880.69	727.73	187.63	803.38	21.524	-149.61	942.32	1703.5	-29.156	861.86	883.93	232.7	732.44	92.084	-35.063	938.19	532.1	45.848	704.47	70.667	-116.4	850.04	39.435	-64.35	812.35	799.44	-212.4
737	3.685	863.28	846.09	288.96	802.18	618.2	-179.94	947.44	744.08	152.18	760.82	1647.9	-128.49	987.77	857.42	-321.08	806.39	1304.9	-313.43	856.04	1005.1	-344.83	851.26	226.5	90.405	908.72	882.25	-326.43	806.62	1148.9	-341.66	926.88	47.898	129.66	857.53	313.76	160.74	829.84	50.676	163.96	742.83	1523.5	-50.829	886.82	50.329	99.071	774.23	1663	12.715	965.41	906.45	-269.88	811.67	137.67	50.009	933.62	392.22	111.48	801.37	873.01	277.42	763.73	1005.2	272.68	874.21	711.27	-172.37	894.45	308.56	99.429	913.04	523.04	173.49	806.19	708.98	-197.5	651.03	1029.8	11.354	757.83	125.62	120.5	641.72	1298.7	-48.193	857.88	1048.3	-173.18	663.6	1437.9	79.049	855.14	819.33	179.07	922.07	1264.1	-46.582	649.35	1027.2	-66.698	763.61	1132.7	-279.24	787.12	513.76	-165.49	737.72	1152.4	245.62	793.23	286.4	-80.199	775.94	1305.2	210.91	769.44	193.05	-77.883	817.63	1476.2	-214.63	643.6	29.806	-74.648	904.37	635.11	179.28	705.62	103.39	59.666	716.57	1135.1	169.44	814.85	373.59	-84.953	904.14	31.39	-78.457	875.79	1437.5	-48.643	795.93	522.04	-36.492	772.7	289.32	-153.36	861.19	1057.1	110.65	940.43	1696.5	-105.2	816.73	1476.1	112.44	886.56	727.96	187.16	803.39	21.528	-149.61	947.17	1703.4	-28.996	863.14	883.65	233.61	732.49	92.116	-35.052	944.19	532.53	45.054	704.51	70.738	-116.4	850.05	39.423	-64.348	815.48	799.34	-212.49
